<?xml version="1.0" encoding="UTF-8" standalone="no"?>
<svg
   width="31.000000"
   height="26.000000"
   viewBox="0 0 31 26"
   fill="none"
   version="1.1"
   id="svg1"
   sodipodi:docname="heartEmpty.svg"
   inkscape:version="1.3.2 (091e20ef0f, 2023-11-25, custom)"
   xmlns:inkscape="http://www.inkscape.org/namespaces/inkscape"
   xmlns:sodipodi="http://sodipodi.sourceforge.net/DTD/sodipodi-0.dtd"
   xmlns="http://www.w3.org/2000/svg"
   xmlns:svg="http://www.w3.org/2000/svg">
  <sodipodi:namedview
     id="namedview1"
     pagecolor="#505050"
     bordercolor="#ffffff"
     borderopacity="1"
     inkscape:showpageshadow="0"
     inkscape:pageopacity="0"
     inkscape:pagecheckerboard="1"
     inkscape:deskcolor="#d1d1d1"
     inkscape:zoom="25.483871"
     inkscape:cx="22.112025"
     inkscape:cy="15.343038"
     inkscape:window-width="1920"
     inkscape:window-height="1080"
     inkscape:window-x="0"
     inkscape:window-y="0"
     inkscape:window-maximized="1"
     inkscape:current-layer="svg1" />
  <desc
     id="desc1">
			Created with Pixso.
	</desc>
  <defs
     id="defs1" />
  <path
     id="Vector"
     d="M0 8.16C0 15.49 6.23 19.4 10.79 22.9C12.39 24.13 13.95 25.29 15.5 25.29C17.04 25.29 18.6 24.13 20.2 22.9C24.77 19.4 31 15.49 31 8.16C31 0.83 22.47 -4.37 15.5 2.68C8.52 -4.37 0 0.83 0 8.16Z"
     fill="#EB0658"
     fill-opacity="1.000000"
     fill-rule="nonzero"
     style="fill:none;fill-opacity:1;stroke:#ea0655;stroke-opacity:1;stroke-width:1;stroke-dasharray:none" />
  <path
     id="path10"
     d="m 1.6327713,8.5966783 c 0,6.5578577 5.5737313,10.0559787 9.6533797,13.1872877 1.431457,1.100431 2.827127,2.138238 4.213849,2.138238 1.377776,0 2.773446,-1.037807 4.204902,-2.138238 C 23.793498,18.652657 29.36723,15.154536 29.36723,8.5966783 29.36723,2.0388212 21.73578,-2.6134103 15.5,3.693942 9.2552742,-2.6134103 1.6327713,2.0388212 1.6327713,8.5966783 Z"
     fill="#EB0658"
     fill-opacity="1.000000"
     fill-rule="nonzero"
     style="fill:none;fill-opacity:1;stroke:#ea0655;stroke-width:3.43655;stroke-dasharray:none;stroke-opacity:1" />
</svg>
