<svg width="18" height="25" viewBox="0 0 18 25" fill="none" xmlns="http://www.w3.org/2000/svg">
<path d="M8.07506 24.3802C1.26422 14.4127 0 13.3897 0 9.72644C0 4.7086 4.02942 0.640869 9 0.640869C13.9706 0.640869 18 4.7086 18 9.72644C18 13.3897 16.7358 14.4127 9.92494 24.3802C9.47798 25.032 8.52197 25.032 8.07506 24.3802ZM9 13.5121C11.0711 13.5121 12.75 11.8172 12.75 9.72644C12.75 7.63567 11.0711 5.94078 9 5.94078C6.92892 5.94078 5.25 7.63567 5.25 9.72644C5.25 11.8172 6.92892 13.5121 9 13.5121Z" fill="#00254A"/>
</svg>
