<svg width="20.000000" height="19.228760" viewBox="0 0 20 19.2288" fill="none" xmlns="http://www.w3.org/2000/svg" xmlns:xlink="http://www.w3.org/1999/xlink">
	<desc>
			Created with Pixso.
	</desc>
	<defs/>
	<path id="Vector" d="M19.42 13.58L15.05 11.78C14.86 11.7 14.65 11.69 14.46 11.73C14.26 11.78 14.08 11.89 13.96 12.04L12.02 14.32C8.98 12.94 6.53 10.58 5.1 7.66L7.46 5.8C7.62 5.67 7.73 5.51 7.78 5.32C7.83 5.13 7.81 4.93 7.73 4.75L5.86 0.54C5.77 0.35 5.62 0.19 5.42 0.09C5.22 0 5 -0.03 4.78 0.02L0.72 0.92C0.52 0.96 0.33 1.08 0.2 1.24C0.07 1.4 0 1.59 0 1.8C0 11.43 8.12 19.22 18.12 19.22C18.33 19.22 18.54 19.15 18.7 19.03C18.87 18.9 18.99 18.72 19.03 18.53L19.97 14.62C20.02 14.41 19.99 14.2 19.89 14.01C19.79 13.82 19.63 13.67 19.42 13.58Z" fill="#00254A" fill-opacity="1.000000" fill-rule="nonzero"/>
</svg>
