<svg width="20.000000" height="19.228760" viewBox="0 0 20 19.2288" fill="none" xmlns="http://www.w3.org/2000/svg" xmlns:xlink="http://www.w3.org/1999/xlink">
	<desc>
			Created with Pixso.
	</desc>
	<defs/>
	<path id="Vector" d="M10 0C4.47 0 0 4.3 0 9.61C0 14.92 4.47 19.22 10 19.22C15.52 19.22 20 14.92 20 9.61C20 4.3 15.52 0 10 0ZM10 17.36C5.54 17.36 1.93 13.89 1.93 9.61C1.93 5.33 5.54 1.86 10 1.86C14.45 1.86 18.06 5.33 18.06 9.61C18.06 13.89 14.45 17.36 10 17.36ZM12.49 13.32L9.06 10.92C8.94 10.83 8.87 10.7 8.87 10.55L8.87 4.18C8.87 3.93 9.08 3.72 9.35 3.72L10.64 3.72C10.91 3.72 11.12 3.93 11.12 4.18L11.12 9.68L13.82 11.56C14.04 11.71 14.08 12 13.92 12.21L13.16 13.21C13.01 13.42 12.7 13.47 12.49 13.32Z" fill="#00254A" fill-opacity="1.000000" fill-rule="nonzero"/>
</svg>
